<svg width="440" height="110" viewBox="0 0 440 110" fill="none" xmlns="http://www.w3.org/2000/svg">
<path d="M28.7 40.9H33.2V45C35.1 41.7 38.7 40.9 41.5 40.9H44.0999V45.5H41.9C38.1 45.5 33.5 47 33.5 50.5V69.3H28.7V40.9Z" fill="black"/>
<path d="M50.9 55.9C51.3 62.3 54.7 65.7 59.6 65.7C64.1 65.7 66.5 63.2 67.2 60.6L71.7 61.4C70.3 66.8 66 69.9 59.4 69.9C51.2 69.9 46.1 64.3 46.1 55.1C46.1 45.6 51.9 40.3 59.5 40.3C67.1 40.3 71.9 45.3 71.9 54V56L50.9 55.9ZM51 52H67.1C66.9 47.6 64.5 44.4 59.5 44.4C55 44.4 51.9 47.4 51 52Z" fill="black"/>
<path d="M98.5 65.7C96.7 68.5 93.5 69.9 89.3 69.9C81.5 69.9 76 64.5 76 55C76 45.7 81.7 40.2 89.8 40.2C93.3 40.2 96.4 41.5 98.4 43.8V28.7H103.2V69.3H98.6L98.5 65.7ZM98.3 53.7C98.3 47.6 94.5 44.6 89.6 44.6C84.2 44.6 80.7 48.6 80.7 55.1C80.7 61.2 83.9 65.7 89.5 65.7C95.2 65.7 98.2 61.6 98.2 56.3L98.3 53.7Z" fill="black"/>
<path d="M106.4 80.9V76.2H134V80.9H106.4Z" fill="black"/>
<path d="M137.2 40.9H141.8V44.6C143.7 41.8 147.2 40.3 150.6 40.3C155.4 40.3 158.7 42.4 160.1 45.5C161.9 42.1 166 40.3 169.8 40.3C176.2 40.3 180.3 43.8 180.3 50.5V69.3H175.5V51.2C175.5 47.3 173.6 44.6 168.9 44.6C164.5 44.6 161.1 47.6 161.1 52.3V69.3H156.3V51.2C156.3 47.3 154.3 44.6 149.6 44.6C145.2 44.6 141.9 47.6 141.9 52.3V69.3H137.1L137.2 40.9Z" fill="black"/>
<path d="M204.4 66C202.6 68.3 199.5 70 195.4 70C189.2 70 185.3 66.8 185.3 61.5C185.3 55.6 189.5 53.2 196.1 53C199 52.9 201.5 53 204.1 53.1V50.6C204.1 46.4 201.5 44.6 197.8 44.6C193.7 44.6 191.8 46.9 190.9 49.7L186.4 48.7C187.6 43.7 191.5 40.3 197.9 40.3C204.4 40.3 209 43.3 209 50.3V69.3H204.5L204.4 66ZM196.3 56.7C192.2 56.9 190.1 58.5 190.1 61.4C190.1 64.2 192.2 65.9 195.5 65.9C200.3 65.9 204 63.3 204 59.5V56.7C201.7 56.6 199 56.6 196.3 56.7Z" fill="black"/>
<path d="M237.2 65.7C235.4 68.5 232.2 69.9 228 69.9C220.2 69.9 214.7 64.5 214.7 55C214.7 45.7 220.4 40.2 228.5 40.2C232 40.2 235.1 41.5 237 43.8V28.7H241.8V69.3H237.2V65.7ZM237 53.7C237 47.6 233.2 44.6 228.3 44.6C222.9 44.6 219.4 48.6 219.4 55.1C219.4 61.2 222.6 65.7 228.3 65.7C234 65.7 237 61.6 237 56.3V53.7Z" fill="black"/>
<path d="M245.1 80.9V76.2H272.6V80.9H245.1Z" fill="black"/>
<path d="M275.9 40.6H280.7V45.4H285.5V50.2H280.7V69.3H275.9V40.6ZM285.5 40.6H292.7V45.4H285.5V40.6Z" fill="black"/>
<path d="M296.3 45.4H301.1V64.5H296.3V45.4ZM317.8 45.4H301.1V40.6H317.8V45.4ZM301.1 64.5H317.8V69.3H301.1V64.5ZM317.8 64.5V45.4H322.6V64.5H317.8Z" fill="black"/>
<path d="M329.5 28.7H334.3V45.4H339.1V50.2H334.3V59.8H339.1V64.6H334.3V69.4H329.5V28.7ZM339.1 40.6H351.1V45.4H339.1V40.6ZM339.1 64.5H351.1V69.3H339.1V64.5ZM351 64.5V45.4H355.8V64.5H351Z" fill="black"/>
<path d="M361.9 45.4H366.7V64.5H361.9V45.4ZM383.4 45.4H366.7V40.6H383.4V45.4ZM366.7 64.5H383.4V69.3H366.7V64.5ZM383.4 64.5V45.4H388.2V64.5H383.4Z" fill="black"/>
<path d="M397 45.4H392.2V40.6H397V33.4H401.8V40.6H411.4V45.4H401.8V64.5H397V45.4ZM401.7 64.5H411.3V69.3H401.7V64.5Z" fill="black"/>
</svg>
