<svg width="469" height="469" viewBox="0 0 469 469" fill="none" xmlns="http://www.w3.org/2000/svg">
<path fill-rule="evenodd" clip-rule="evenodd" d="M248.714 43.8906H219.453V73.151H190.193V190.193H160.932V219.453H131.672V248.714L102.411 248.714V277.974H73.151V336.495H102.411H160.932V307.234H190.193V365.755L160.932 365.755V395.016L131.672 395.016V424.276H160.932H219.453H248.713H307.234H336.495V395.016L307.234 395.016V365.755L277.974 365.755V307.234H307.234V336.495H365.755H395.016V277.974H365.755V248.714L336.495 248.714V219.453H307.234V190.193H277.974V73.151H248.714V43.8906ZM248.714 73.151L248.713 190.193H277.974V219.453H307.234V248.714H336.495V277.974H365.755L365.755 307.234H307.234L307.234 277.974H248.713V307.234V365.755H277.974V395.016L248.713 395.016H219.453L190.193 395.016V365.755H219.453V307.234V277.974H160.932V307.234H102.411V277.974H131.672L131.672 248.714H160.932V219.453H190.193V190.193H219.453V73.151H248.714Z" fill="black"/>
</svg>
