<svg width="449" height="434" viewBox="0 0 449 434" fill="none" xmlns="http://www.w3.org/2000/svg">
<path fill-rule="evenodd" clip-rule="evenodd" d="M168.376 54.249H280.626V81.374H168.376V54.249ZM168.378 81.3806H140.316V122.057H70.1578V149.182H378.845V122.057H308.687V81.3806H280.624V122.057H168.378V81.3806ZM70.1528 149.188H42.0903V352.626H70.1528V149.188ZM378.842 149.188H406.905V352.626H378.845V379.75H70.1578V352.625H378.842V149.188ZM154.343 223.782H98.218V250.907H154.343V223.782ZM182.408 250.907H266.594V223.782H182.406V250.9H154.346V278.025H182.408V250.907ZM350.779 250.907H294.657V278.025H266.594V250.9H294.654V223.782H350.779V250.907Z" fill="black"/>
</svg>
