<svg width="469" height="469" viewBox="0 0 469 469" fill="none" xmlns="http://www.w3.org/2000/svg">
<path fill-rule="evenodd" clip-rule="evenodd" d="M190.193 58.5215H277.974V87.7819H190.193V58.5215ZM160.932 263.344V87.7819H190.193V234.084H277.974V87.7819H307.234V263.344H277.974H190.193H160.932ZM131.672 263.344H160.932V292.605H307.234V263.344H336.495L336.495 204.824H365.755V292.605L336.495 292.605L336.495 321.865H248.714V351.126H307.234V380.386H248.714V409.646H219.453V380.386H160.932V351.126H219.453V321.865H131.672V292.605L102.411 292.605V204.824H131.672V263.344ZM160.932 380.386V409.646H131.672V380.386H160.932ZM307.234 380.386H336.495V409.646H307.234V380.386Z" fill="black"/>
</svg>
