<svg width="469" height="469" viewBox="0 0 469 469" fill="none" xmlns="http://www.w3.org/2000/svg">
<path fill-rule="evenodd" clip-rule="evenodd" d="M307.234 58.5215H160.932V87.7819H131.672V117.042H73.151V146.303V175.563H102.411V204.824H131.672L131.672 234.084H160.932V263.344H190.193V292.605H219.453V321.865H160.932V351.126L131.672 351.126V380.386V409.646H336.495V380.386V351.126H307.234V321.865H248.714L248.713 292.605H277.974V263.344H307.234V234.084H336.495V204.824H365.755V175.563L395.016 175.563L395.016 146.303V117.042H336.495V87.7819H307.234V58.5215ZM365.755 146.303V175.563H336.495V146.303H365.755ZM307.234 87.7819V234.084H277.974V263.344H248.713V292.605H219.453V263.344H190.193V234.084H160.932V87.7819H307.234ZM307.234 351.126L160.932 351.126V380.386H307.234V351.126ZM102.411 175.563L131.672 175.563L131.672 146.303H102.411V175.563Z" fill="black"/>
</svg>
