<svg width="469" height="469" viewBox="0 0 469 469" fill="none" xmlns="http://www.w3.org/2000/svg">
<path fill-rule="evenodd" clip-rule="evenodd" d="M102.411 43.8906H365.755V73.151H102.411V43.8906ZM102.411 160.932H73.1509V73.151H102.411V160.932ZM365.755 160.932H102.411V190.193H73.1509V277.974H102.411V307.234H73.1509V395.016H102.411V424.276H365.755V395.016H395.015V307.234H365.755V277.974H395.015V190.193H365.755V160.932ZM365.755 160.932H395.015V73.151H365.755V160.932ZM365.755 190.193V277.974H102.411V190.193H365.755ZM365.755 307.234V395.016H102.411V307.234H365.755ZM160.932 102.411H131.672V131.672H160.932V102.411ZM131.672 219.453H160.932V248.714H131.672V219.453ZM160.932 336.495H131.672V365.755H160.932V336.495Z" fill="black"/>
</svg>
