<svg width="469" height="469" viewBox="0 0 469 469" fill="none" xmlns="http://www.w3.org/2000/svg">
<rect x="219.485" y="103.485" width="29.2" height="29.2" fill="black"/>
<rect x="219.485" y="132.485" width="29.2" height="29.2" fill="black"/>
<rect x="219.485" y="161.485" width="29.2" height="29.2" fill="black"/>
<rect x="219.485" y="74.4854" width="29.2" height="29.2" fill="black"/>
<rect x="219.485" y="103.485" width="29.2" height="29.2" fill="black"/>
<rect x="219.485" y="335.485" width="29.2" height="29.2" fill="black"/>
<rect x="248.485" y="103.485" width="29.2" height="29.2" fill="black"/>
<rect x="248.485" y="335.485" width="29.2" height="29.2" fill="black"/>
<rect x="277.485" y="103.485" width="29.2" height="29.2" fill="black"/>
<rect x="277.485" y="335.485" width="29.2" height="29.2" fill="black"/>
<rect x="306.485" y="132.485" width="29.2" height="29.2" fill="black"/>
<rect x="306.485" y="306.485" width="29.2" height="29.2" fill="black"/>
<rect x="306.485" y="277.485" width="29.2" height="29.2" fill="black"/>
<rect x="306.485" y="248.485" width="29.2" height="29.2" fill="black"/>
<rect x="132.485" y="132.485" width="29.2" height="29.2" fill="black"/>
<rect x="132.485" y="161.485" width="29.2" height="29.2" fill="black"/>
<rect x="132.485" y="190.485" width="29.2" height="29.2" fill="black"/>
<rect x="132.485" y="306.485" width="29.2" height="29.2" fill="black"/>
<rect x="161.485" y="103.485" width="29.2" height="29.2" fill="black"/>
<rect x="161.485" y="335.485" width="29.2" height="29.2" fill="black"/>
<rect x="190.485" y="103.485" width="29.2" height="29.2" fill="black"/>
<rect x="190.485" y="335.485" width="29.2" height="29.2" fill="black"/>
<rect x="219.485" y="132.485" width="29.2" height="29.2" fill="black"/>
<rect x="219.485" y="161.485" width="29.2" height="29.2" fill="black"/>
<rect x="219.485" y="190.485" width="29.2" height="29.2" fill="black"/>
<rect x="219.485" y="219.485" width="29.2" height="29.2" fill="black"/>
<rect x="248.485" y="219.485" width="29.2" height="29.2" fill="black"/>
<rect x="277.485" y="219.485" width="29.2" height="29.2" fill="black"/>
<rect x="161.485" y="219.485" width="29.2" height="29.2" fill="black"/>
<rect x="190.485" y="219.485" width="29.2" height="29.2" fill="black"/>
<rect x="219.485" y="248.485" width="29.2" height="29.2" fill="black"/>
<rect x="219.485" y="277.485" width="29.2" height="29.2" fill="black"/>
<rect x="219.485" y="306.485" width="29.2" height="29.2" fill="black"/>
<rect x="219.485" y="335.485" width="29.2" height="29.2" fill="black"/>
<rect x="219.485" y="364.485" width="29.2" height="29.2" fill="black"/>
</svg>
