<svg width="469" height="469" viewBox="0 0 469 469" fill="none" xmlns="http://www.w3.org/2000/svg">
<path fill-rule="evenodd" clip-rule="evenodd" d="M175.562 43.8906H292.604V73.151H351.125V102.411V131.672H321.865V102.411L263.344 102.411V73.151H204.823V102.411L146.302 102.411V131.672H117.042V102.411V73.151H175.562V43.8906ZM175.562 219.453H146.302H117.042V248.714V277.974H146.302V307.234V336.495V365.755H117.042V336.495L117.042 307.234H87.7812V277.974V248.714V160.932V131.672H117.042V160.932V190.193H146.302H175.562L175.562 219.453ZM292.604 219.453V248.714H263.344H204.823H175.562V219.453H204.823H263.344H292.604ZM292.604 336.495V307.234H321.865V277.974H351.125V248.714V219.453H321.865H292.604L292.604 190.193H321.865H351.125V160.932V131.672H380.385V160.932V248.714V277.974V307.234H351.125V336.495V365.755H321.865V336.495H292.604ZM175.562 336.495H292.604V365.755H321.865V395.016H292.604V424.276H263.344H204.823H175.562V395.016H146.302V365.755H175.562V336.495ZM175.562 336.495H146.302V307.234H175.562V336.495ZM204.823 395.016V365.755H263.344L263.344 395.016H204.823ZM292.604 131.672H175.562V160.932H292.604V131.672Z" fill="black"/>
</svg>
