<svg width="469" height="469" viewBox="0 0 469 469" fill="none" xmlns="http://www.w3.org/2000/svg">
<path fill-rule="evenodd" clip-rule="evenodd" d="M160.932 102.412H190.193V102.412H248.714V102.412H277.974V102.412H307.234V131.672H277.974V160.932V190.193H248.714H190.193H160.932V160.932V131.672H131.672V336.495H160.932V248.714V219.453H307.234V248.714V336.495H336.495V160.932H365.755L365.755 336.495L365.755 365.755H336.495L131.672 365.756H102.411V131.672V102.412H131.672H160.932V102.412ZM336.495 160.932H307.234V131.672H336.495L336.495 160.932ZM248.714 160.932V131.672H190.193V160.932H248.714ZM277.974 248.714H190.193V336.495H277.974V248.714Z" fill="black"/>
</svg>
