<svg width="469" height="469" viewBox="0 0 469 469" fill="none" xmlns="http://www.w3.org/2000/svg">
<path fill-rule="evenodd" clip-rule="evenodd" d="M219.453 43.8906H248.714V73.151H219.453V43.8906ZM248.714 131.672L248.714 73.151H277.974V131.672H248.714ZM365.755 190.193L365.755 160.932H248.714V131.672H219.453V160.932H102.411L102.411 190.193H73.151V219.453H43.8906V307.234H73.151V336.495H102.411L102.411 365.755H190.193V336.495H277.974V365.755H365.755V336.495H395.016V307.234H424.276V219.453H395.016V190.193H365.755ZM365.755 190.193V219.453H395.016V307.234H365.755V336.495H277.974V307.234H190.193V336.495H102.411V307.234H73.151V219.453H102.411V190.193H219.453H248.714H365.755ZM336.495 248.714H365.755V277.974H336.495V248.714ZM336.495 277.974V307.234H307.234V277.974H336.495ZM131.672 219.453H160.932V248.714H190.193V277.974H160.932V307.234H131.672V277.974H102.411V248.714H131.672V219.453Z" fill="black"/>
</svg>
