<svg width="469" height="469" viewBox="0 0 469 469" fill="none" xmlns="http://www.w3.org/2000/svg">
<path fill-rule="evenodd" clip-rule="evenodd" d="M277.974 58.521H190.193V87.7814H131.672V117.042H102.412V175.563H73.1514V263.344V380.386H102.412V351.125H131.672V321.865H160.933V351.125H190.193V380.386H219.453V351.125H248.714V380.386H277.974V351.125L307.235 351.125V321.865H336.495V351.125H365.756V380.386H395.016V263.344V175.563H365.756V117.042H336.495V87.7814H277.974V58.521ZM277.974 87.7814V117.042H336.495V175.563H365.756V263.344V321.865H336.495V292.604H307.235V321.865H277.974V351.125H248.714L248.714 321.865H219.453V351.125L190.193 351.125V321.865H160.933V292.604H131.672L131.672 321.865H102.412V263.344V175.563H131.672L131.672 117.042H190.193V87.7814H277.974ZM219.453 146.302V204.823H160.933V146.302H219.453ZM307.235 146.302H248.714V204.823H307.235V146.302Z" fill="black"/>
</svg>
