<svg width="469" height="469" viewBox="0 0 469 469" fill="none" xmlns="http://www.w3.org/2000/svg">
<rect x="336.495" y="190.193" width="29.2604" height="29.2604" transform="rotate(-180 336.495 190.193)" fill="black"/>
<rect x="336.495" y="160.932" width="29.2604" height="29.2604" transform="rotate(-180 336.495 160.932)" fill="black"/>
<rect x="307.234" y="160.932" width="29.2604" height="29.2604" transform="rotate(-180 307.234 160.932)" fill="black"/>
<rect x="277.974" y="131.672" width="29.2604" height="29.2604" transform="rotate(-180 277.974 131.672)" fill="black"/>
<rect x="219.453" y="131.672" width="29.2604" height="29.2604" transform="rotate(-180 219.453 131.672)" fill="black"/>
<rect x="248.714" y="131.672" width="29.2604" height="29.2604" transform="rotate(-180 248.714 131.672)" fill="black"/>
<rect x="190.193" y="160.932" width="29.2604" height="29.2604" transform="rotate(-180 190.193 160.932)" fill="black"/>
<rect x="160.933" y="160.932" width="29.2604" height="29.2604" transform="rotate(-180 160.933 160.932)" fill="black"/>
<rect x="160.933" y="190.193" width="29.2604" height="29.2604" transform="rotate(-180 160.933 190.193)" fill="black"/>
<rect x="131.672" y="219.453" width="29.2604" height="29.2604" transform="rotate(-180 131.672 219.453)" fill="black"/>
<rect x="131.672" y="248.713" width="29.2604" height="29.2604" transform="rotate(-180 131.672 248.713)" fill="black"/>
<rect x="365.755" y="277.974" width="29.2604" height="29.2604" transform="rotate(-180 365.755 277.974)" fill="black"/>
<rect x="336.495" y="307.234" width="29.2604" height="29.2604" transform="rotate(-180 336.495 307.234)" fill="black"/>
<rect x="336.495" y="336.495" width="29.2604" height="29.2604" transform="rotate(-180 336.495 336.495)" fill="black"/>
<rect x="307.234" y="336.495" width="29.2604" height="29.2604" transform="rotate(-180 307.234 336.495)" fill="black"/>
<rect x="277.974" y="365.755" width="29.2604" height="29.2604" transform="rotate(-180 277.974 365.755)" fill="black"/>
<rect x="277.974" y="160.932" width="29.2604" height="29.2604" transform="rotate(90 277.974 160.932)" fill="black"/>
<rect x="336.495" y="102.412" width="29.2604" height="29.2604" transform="rotate(90 336.495 102.412)" fill="black"/>
<rect x="336.495" y="131.672" width="29.2604" height="29.2604" transform="rotate(90 336.495 131.672)" fill="black"/>
<rect x="336.495" y="160.932" width="29.2604" height="29.2604" transform="rotate(90 336.495 160.932)" fill="black"/>
<rect x="307.235" y="160.932" width="29.2604" height="29.2604" transform="rotate(90 307.235 160.932)" fill="black"/>
<rect x="160.933" y="307.234" width="29.2604" height="29.2604" transform="rotate(-180 160.933 307.234)" fill="black"/>
<rect x="160.933" y="336.495" width="29.2604" height="29.2604" transform="rotate(-180 160.933 336.495)" fill="black"/>
<rect x="190.193" y="336.495" width="29.2604" height="29.2604" transform="rotate(-180 190.193 336.495)" fill="black"/>
<rect x="219.453" y="365.755" width="29.2604" height="29.2604" transform="rotate(-180 219.453 365.755)" fill="black"/>
<rect x="248.714" y="365.755" width="29.2604" height="29.2604" transform="rotate(-180 248.714 365.755)" fill="black"/>
<rect x="131.672" y="277.974" width="29.2604" height="29.2604" fill="black"/>
<rect x="131.672" y="307.234" width="29.2604" height="29.2604" fill="black"/>
<rect x="160.933" y="307.234" width="29.2604" height="29.2604" fill="black"/>
<rect x="190.193" y="336.495" width="29.2604" height="29.2604" fill="black"/>
<rect x="248.714" y="336.495" width="29.2604" height="29.2604" fill="black"/>
<rect x="219.453" y="336.495" width="29.2604" height="29.2604" fill="black"/>
<rect x="277.974" y="307.234" width="29.2604" height="29.2604" fill="black"/>
<rect x="307.234" y="307.234" width="29.2604" height="29.2604" fill="black"/>
<rect x="307.234" y="277.974" width="29.2604" height="29.2604" fill="black"/>
<rect x="336.495" y="248.713" width="29.2604" height="29.2604" fill="black"/>
<rect x="336.495" y="219.453" width="29.2604" height="29.2604" fill="black"/>
<rect x="102.412" y="190.192" width="29.2604" height="29.2604" fill="black"/>
<rect x="131.672" y="160.932" width="29.2604" height="29.2604" fill="black"/>
<rect x="131.672" y="131.672" width="29.2604" height="29.2604" fill="black"/>
<rect x="160.933" y="131.672" width="29.2604" height="29.2604" fill="black"/>
<rect x="190.193" y="102.411" width="29.2604" height="29.2604" fill="black"/>
<rect x="190.193" y="307.234" width="29.2604" height="29.2604" transform="rotate(-90 190.193 307.234)" fill="black"/>
<rect x="131.672" y="365.755" width="29.2604" height="29.2604" transform="rotate(-90 131.672 365.755)" fill="black"/>
<rect x="131.672" y="336.495" width="29.2604" height="29.2604" transform="rotate(-90 131.672 336.495)" fill="black"/>
<rect x="131.672" y="307.234" width="29.2604" height="29.2604" transform="rotate(-90 131.672 307.234)" fill="black"/>
<rect x="160.932" y="307.234" width="29.2604" height="29.2604" transform="rotate(-90 160.932 307.234)" fill="black"/>
<rect x="307.234" y="160.932" width="29.2604" height="29.2604" fill="black"/>
<rect x="307.234" y="131.672" width="29.2604" height="29.2604" fill="black"/>
<rect x="277.974" y="131.672" width="29.2604" height="29.2604" fill="black"/>
<rect x="248.714" y="102.411" width="29.2604" height="29.2604" fill="black"/>
<rect x="219.453" y="102.411" width="29.2604" height="29.2604" fill="black"/>
</svg>
