<svg width="264" height="264" viewBox="0 0 264 264" fill="none" xmlns="http://www.w3.org/2000/svg">
<rect x="234.084" y="87.7813" width="29.2604" height="29.2604" transform="rotate(-180 234.084 87.7813)" fill="black"/>
<rect x="234.084" y="58.5205" width="29.2604" height="29.2604" transform="rotate(-180 234.084 58.5205)" fill="black"/>
<rect x="204.823" y="58.5205" width="29.2604" height="29.2604" transform="rotate(-180 204.823 58.5205)" fill="black"/>
<rect x="175.563" y="29.2603" width="29.2604" height="29.2604" transform="rotate(-180 175.563 29.2603)" fill="black"/>
<rect x="117.042" y="29.2603" width="29.2604" height="29.2604" transform="rotate(-180 117.042 29.2603)" fill="black"/>
<rect x="146.302" y="29.2603" width="29.2604" height="29.2604" transform="rotate(-180 146.302 29.2603)" fill="black"/>
<rect x="87.7813" y="58.5205" width="29.2604" height="29.2604" transform="rotate(-180 87.7813 58.5205)" fill="black"/>
<rect x="58.521" y="58.5205" width="29.2604" height="29.2604" transform="rotate(-180 58.521 58.5205)" fill="black"/>
<rect x="58.521" y="87.7813" width="29.2604" height="29.2604" transform="rotate(-180 58.521 87.7813)" fill="black"/>
<rect x="29.2603" y="117.042" width="29.2604" height="29.2604" transform="rotate(-180 29.2603 117.042)" fill="black"/>
<rect x="29.2603" y="146.302" width="29.2604" height="29.2604" transform="rotate(-180 29.2603 146.302)" fill="black"/>
<rect x="263.344" y="175.563" width="29.2604" height="29.2604" transform="rotate(-180 263.344 175.563)" fill="black"/>
<rect x="234.084" y="204.823" width="29.2604" height="29.2604" transform="rotate(-180 234.084 204.823)" fill="black"/>
<rect x="234.084" y="234.083" width="29.2604" height="29.2604" transform="rotate(-180 234.084 234.083)" fill="black"/>
<rect x="204.823" y="234.083" width="29.2604" height="29.2604" transform="rotate(-180 204.823 234.083)" fill="black"/>
<rect x="175.563" y="263.344" width="29.2604" height="29.2604" transform="rotate(-180 175.563 263.344)" fill="black"/>
<rect x="175.563" y="58.5205" width="29.2604" height="29.2604" transform="rotate(90 175.563 58.5205)" fill="black"/>
<rect x="234.084" y="1.15111e-05" width="29.2604" height="29.2604" transform="rotate(90 234.084 1.15111e-05)" fill="black"/>
<rect x="234.084" y="29.2603" width="29.2604" height="29.2604" transform="rotate(90 234.084 29.2603)" fill="black"/>
<rect x="234.084" y="58.5205" width="29.2604" height="29.2604" transform="rotate(90 234.084 58.5205)" fill="black"/>
<rect x="204.823" y="58.5205" width="29.2604" height="29.2604" transform="rotate(90 204.823 58.5205)" fill="black"/>
<rect x="58.521" y="204.823" width="29.2604" height="29.2604" transform="rotate(-180 58.521 204.823)" fill="black"/>
<rect x="58.521" y="234.083" width="29.2604" height="29.2604" transform="rotate(-180 58.521 234.083)" fill="black"/>
<rect x="87.7813" y="234.083" width="29.2604" height="29.2604" transform="rotate(-180 87.7813 234.083)" fill="black"/>
<rect x="117.042" y="263.344" width="29.2604" height="29.2604" transform="rotate(-180 117.042 263.344)" fill="black"/>
<rect x="146.302" y="263.344" width="29.2604" height="29.2604" transform="rotate(-180 146.302 263.344)" fill="black"/>
</svg>
