<svg width="470" height="470" viewBox="0 0 470 470" fill="none" xmlns="http://www.w3.org/2000/svg">
<path fill-rule="evenodd" clip-rule="evenodd" d="M58.75 146.875H29.375V293.75H58.75H88.125V323.125H117.5V381.875H146.875V411.25H176.25V440.625H205.625V411.25H235V440.625H264.375V411.25H293.75V381.875H323.125V352.5H352.5V323.125V293.75H381.875H411.25H440.625V146.875H411.25H58.75ZM58.75 176.25V264.375H88.125V293.75H117.5V323.125H146.875V381.875H176.25V411.25H205.625V381.875H235V411.25H264.375V381.875H293.75V352.5H323.125V323.125V293.75H352.5V264.375H381.875H411.25V176.25H205.625V205.625H176.25V176.25H58.75ZM205.625 235V264.375H176.25H146.875V235V205.625H176.25V235H205.625ZM293.75 264.375V293.75H323.125V264.375H293.75ZM293.75 264.375H264.375V235H235H205.625V205.625H235H264.375H293.75V235V264.375ZM264.375 352.5V381.875H235V352.5H264.375ZM264.375 323.125H293.75V352.5H264.375V323.125ZM235 323.125V293.75H264.375V323.125H235ZM205.625 352.5H176.25V381.875H205.625V352.5ZM205.625 352.5V323.125H235V352.5H205.625Z" fill="black"/>
</svg>
