<svg width="470" height="470" viewBox="0 0 470 470" fill="none" xmlns="http://www.w3.org/2000/svg">
<path fill-rule="evenodd" clip-rule="evenodd" d="M161.562 29.375H190.938V58.75H161.562H132.188V29.375H161.562ZM132.188 88.125H102.812V58.75H132.188V88.125ZM190.938 88.125V117.5H161.562H132.188V88.125H161.562H190.938ZM58.75 146.875H220.312V88.125H190.938V58.75H220.312H249.688H279.062V88.125H249.688V146.875H411.25H440.625V293.75H411.25H381.875H352.5V264.375H381.875H411.25V176.25H205.625V205.625H176.25V176.25H58.75V264.375H88.125V293.75H58.75H29.375V146.875H58.75ZM117.5 323.125H88.125V293.75H117.5V323.125ZM146.875 381.875H117.5V323.125H146.875V381.875ZM176.25 381.875H146.875V411.25H176.25V440.625H205.625V411.25H235V440.625H264.375V411.25H293.75V381.875H323.125V352.5H352.5V323.125V293.75H323.125V264.375H293.75V235V205.625H264.375H235H205.625V235H176.25V205.625H146.875V235V264.375H176.25H205.625V235H235H264.375V264.375H293.75V293.75H323.125V323.125V352.5H293.75V323.125H264.375V293.75H235V323.125H205.625V352.5H176.25V381.875ZM205.625 381.875V411.25H176.25V381.875H205.625ZM235 381.875V411.25H264.375V381.875H293.75V352.5H264.375V323.125H235V352.5H205.625V381.875H235ZM235 381.875V352.5H264.375V381.875H235ZM337.812 88.125V117.5H279.062V88.125H337.812ZM337.812 58.75H367.188V88.125H337.812V58.75ZM337.812 58.75V29.375H279.062V58.75H337.812Z" fill="black"/>
</svg>
