<svg width="469" height="469" viewBox="0 0 469 469" fill="none" xmlns="http://www.w3.org/2000/svg">
<path d="M131.672 117.042H219.453V146.302H131.672V117.042Z" fill="black"/>
<path d="M131.672 234.083H102.411V146.302H131.672V234.083Z" fill="black"/>
<path d="M160.932 263.344H131.672V234.083H160.932V263.344Z" fill="black"/>
<path d="M190.193 292.604H160.932V263.344H190.193V292.604Z" fill="black"/>
<path d="M219.453 321.864H190.193V292.604H219.453V321.864Z" fill="black"/>
<path d="M248.713 321.864V351.125H219.453V321.864H248.713Z" fill="black"/>
<path d="M277.974 292.604V321.864H248.713V292.604H277.974Z" fill="black"/>
<path d="M307.234 263.344V292.604H277.974V263.344H307.234Z" fill="black"/>
<path d="M336.495 234.083V263.344H307.234V234.083H336.495Z" fill="black"/>
<path d="M336.495 146.302V175.562V234.083H365.755V146.302H336.495Z" fill="black"/>
<path d="M248.713 146.302V117.042C277.974 117.042 307.234 117.042 336.495 117.042V146.302H248.713Z" fill="black"/>
<path d="M248.713 146.302V175.562H219.453V146.302H248.713Z" fill="black"/>
</svg>
