<svg width="470" height="470" viewBox="0 0 470 470" fill="none" xmlns="http://www.w3.org/2000/svg">
<path fill-rule="evenodd" clip-rule="evenodd" d="M352.5 14.6875H323.125V190.938H279.062V58.75H249.688V190.938H205.625V102.812H176.25V190.938H117.5V220.312H88.125V249.688H73.4375V279.062H58.75V396.562H88.125H381.875H411.25V220.312H381.875V190.938H352.5V14.6875ZM337.812 367.188H381.875V220.312H352.5V190.938H323.125V220.312H279.062V190.938H249.688V220.312H205.625V190.938H176.25V220.312H146.875V367.188H249.688V308.438H279.062V367.188H308.438V308.438H337.812V367.188ZM308.438 308.438H279.062V279.062H308.438V308.438ZM117.5 249.688V367.188H88.125V279.062H102.812V249.688H117.5Z" fill="black"/>
</svg>
