<svg width="469" height="469" viewBox="0 0 469 469" fill="none" xmlns="http://www.w3.org/2000/svg">
<path fill-rule="evenodd" clip-rule="evenodd" d="M87.7813 146.302H175.563V175.563H87.7813V146.302ZM87.7813 292.604H58.5209V175.563H87.7813V292.604ZM175.563 292.604H87.7813V321.865H175.563V292.604ZM175.563 292.604V263.344H204.823V292.604H175.563ZM204.823 204.823H175.563V175.563H204.823L204.823 204.823ZM234.083 234.083H204.823V204.823H234.083V234.083ZM263.344 263.344H234.083V234.083H263.344V263.344ZM292.604 292.604H263.344V263.344H292.604L292.604 292.604ZM380.385 292.604V321.865H292.604V292.604H380.385ZM380.385 175.563H409.646V292.604H380.385V175.563ZM292.604 175.563V146.302H380.385V175.563H292.604ZM292.604 175.563L292.604 204.823H263.344V175.563H292.604Z" fill="black"/>
</svg>
