<svg width="469" height="469" viewBox="0 0 469 469" fill="none" xmlns="http://www.w3.org/2000/svg">
<path fill-rule="evenodd" clip-rule="evenodd" d="M160.932 73.1504H307.235V102.411H160.932V73.1504ZM131.672 131.671V102.411L160.932 102.411L160.932 131.671H131.672ZM131.672 219.452H102.412V131.671L131.672 131.671V219.452ZM160.932 248.713H131.672V219.452H160.932V248.713ZM307.235 248.713L307.235 277.973H160.932L160.932 248.713H219.453V190.192H190.193V160.932H277.974V190.192H248.714V248.713H307.235ZM336.495 219.452L336.495 248.713H307.235V219.452H336.495ZM336.495 131.671H365.755V219.452H336.495V131.671ZM336.495 131.671L336.495 102.411L307.235 102.411L307.235 131.671L336.495 131.671ZM160.932 307.234H307.235V336.494H160.932V307.234ZM277.974 365.755H190.193V395.015H277.974V365.755Z" fill="black"/>
</svg>
