<svg width="469" height="469" viewBox="0 0 469 469" fill="none" xmlns="http://www.w3.org/2000/svg">
<path fill-rule="evenodd" clip-rule="evenodd" d="M102.412 160.932H131.672L131.672 336.495H336.495V190.193H277.974H190.193H131.672V160.932H190.193H277.974H336.495L336.495 160.932H365.755V365.755H336.495H131.672H102.412V160.932ZM160.933 219.377H190.193V248.637H160.933V219.377ZM248.662 248.637H277.974V277.898H248.662V248.637ZM277.974 248.637V219.377H307.234V248.637L277.974 248.637Z" fill="black"/>
<rect x="131.672" y="190.117" width="29.26" height="29.2604" fill="black"/>
<rect x="307.267" y="190.117" width="29.26" height="29.2604" fill="black"/>
<rect x="190.193" y="248.637" width="29.4139" height="29.2604" fill="black"/>
<rect width="29.2604" height="29.2604" transform="matrix(-1 0 0 1 248.609 277.777)" fill="black"/>
</svg>
