<svg width="469" height="469" viewBox="0 0 469 469" fill="none" xmlns="http://www.w3.org/2000/svg">
<path fill-rule="evenodd" clip-rule="evenodd" d="M336.495 73.1509H307.235V102.411L277.974 102.411V131.672L160.932 131.672H131.672H102.412V160.932H131.672V190.193H160.932V219.453H190.193V248.713H219.453V365.755H160.932V395.015H307.235V365.755H248.714V248.713L277.974 248.713V219.453H307.235V190.193H336.495V160.932H365.755V131.672H336.495L307.235 131.672V102.411H336.495V73.1509ZM277.974 190.193V160.932H307.235V190.193H277.974ZM277.974 190.193H248.714V160.932H160.932L160.932 190.193H190.193V219.453H219.453V248.713L248.714 248.713V219.453H277.974V190.193Z" fill="black"/>
</svg>
