<svg width="469" height="469" viewBox="0 0 469 469" fill="none" xmlns="http://www.w3.org/2000/svg">
<path fill-rule="evenodd" clip-rule="evenodd" d="M277.974 73.1509H248.714V102.411H277.974V131.672V219.453H248.714V248.713L219.453 248.713L219.453 277.974H131.672H102.411L102.411 248.713H73.1511V277.974H102.411V336.495H131.672V365.755H190.193V395.015H277.974V365.755H336.495V336.495H365.755L365.755 277.974H395.016V190.193H365.755V131.672L336.495 131.672V102.411H277.974V73.1509ZM336.495 131.672V190.193H365.755L365.755 277.974H336.495V336.495H277.974V365.755H190.193V336.495H131.672V307.234H219.453V277.974H248.714V248.713H277.974V219.453H307.234V131.672L336.495 131.672Z" fill="black"/>
</svg>
