<svg width="469" height="469" viewBox="0 0 469 469" fill="none" xmlns="http://www.w3.org/2000/svg">
<path fill-rule="evenodd" clip-rule="evenodd" d="M307.234 29.2603H277.974V58.5207H248.713V87.7811H219.453V117.042H175.562V146.302H146.302V234.083H117.042V321.864H146.302V351.125V380.385V409.646H321.864V380.385V351.125V321.864H351.125V204.823H321.864V146.302H292.604V117.042H248.713V87.7811H277.974V58.5207H307.234V29.2603ZM204.823 204.823L292.604 204.823L321.864 204.823V321.864H146.302V234.083H175.562H204.823V204.823ZM204.823 204.823V175.562H292.604V146.302H175.562V204.823H204.823ZM175.562 380.385V351.125H292.604V380.385H175.562ZM292.604 234.083H234.083V292.604H292.604V234.083ZM175.562 263.344H204.823V292.604H175.562V263.344Z" fill="black"/>
</svg>
