<svg width="469" height="469" viewBox="0 0 469 469" fill="none" xmlns="http://www.w3.org/2000/svg">
<path fill-rule="evenodd" clip-rule="evenodd" d="M219.453 73.1504H307.235V102.411V131.671L336.495 131.671V160.932H307.235V190.192H277.974V160.932V131.671V102.411H219.453V73.1504ZM131.672 160.932V131.671L190.193 131.671V102.411H219.453V131.671V160.932H190.193V190.192H160.933V160.932H131.672ZM102.412 307.234H73.1514V248.713V219.452H102.412V160.932H131.672L131.672 219.452H336.495V160.932H365.756V219.452H395.016V248.713V307.234H365.756V248.713H102.412V307.234ZM131.672 365.755L131.672 307.234L102.412 307.234V365.755L131.672 365.755ZM336.495 365.755V307.234L365.756 307.234V365.755L336.495 365.755ZM336.495 365.755H131.672V395.015H336.495V365.755Z" fill="black"/>
</svg>
