<svg width="469" height="469" viewBox="0 0 469 469" fill="none" xmlns="http://www.w3.org/2000/svg">
<path fill-rule="evenodd" clip-rule="evenodd" d="M292.604 73.1509H204.823V102.411H146.302V131.672L117.042 131.672V190.193H87.7812V277.974H117.042V336.495H146.302V365.755H204.823V395.015H292.604V365.755H351.125V336.495H380.385V307.234H351.125V277.974H292.604V248.713H234.083V219.453H292.604V190.193H351.125V160.932H380.385V131.672L351.125 131.672V102.411H292.604V73.1509ZM292.604 102.411V131.672H351.125V160.932H292.604V190.193H234.083V219.453H204.823V248.713L234.083 248.713V277.974H292.604V307.234H351.125V336.495H292.604V365.755H204.823L204.823 336.495H146.302V277.974H117.042V190.193H146.302V131.672H204.823L204.823 102.411H292.604Z" fill="black"/>
</svg>
