<svg width="469" height="469" viewBox="0 0 469 469" fill="none" xmlns="http://www.w3.org/2000/svg">
<path fill-rule="evenodd" clip-rule="evenodd" d="M175.562 43.8906H146.302V102.411H117.042V131.672H87.7813L87.7812 263.344H117.042L117.042 292.604L146.302 292.604V321.865H175.562L175.562 351.125L219.453 351.125V395.016H248.714L248.714 424.276H307.234V395.016H248.714V351.125L292.604 351.125V321.865H321.865V292.604H351.125V263.344H380.385V131.672H351.125V102.411H321.865V43.8906H292.604V102.411H175.562V43.8906ZM351.125 131.672V263.344H321.865V292.604L292.604 292.604V321.865H175.562V292.604H146.302V263.344H117.042L117.042 131.672H351.125ZM175.562 204.823H146.302V234.083H175.562L175.562 263.344H204.823V292.604H234.083V263.344H204.823V234.083H175.562V204.823Z" fill="black"/>
</svg>
