<svg width="469" height="469" viewBox="0 0 469 469" fill="none" xmlns="http://www.w3.org/2000/svg">
<rect x="131.672" y="277.974" width="29.2604" height="29.2604" fill="black"/>
<rect x="131.672" y="307.235" width="29.2604" height="29.2604" fill="black"/>
<rect x="160.932" y="307.235" width="29.2604" height="29.2604" fill="black"/>
<rect x="190.193" y="336.495" width="29.2604" height="29.2604" fill="black"/>
<rect x="248.714" y="336.495" width="29.2604" height="29.2604" fill="black"/>
<rect x="219.453" y="336.495" width="29.2604" height="29.2604" fill="black"/>
<rect x="277.974" y="307.235" width="29.2604" height="29.2604" fill="black"/>
<rect x="307.234" y="307.235" width="29.2604" height="29.2604" fill="black"/>
<rect x="307.234" y="277.974" width="29.2604" height="29.2604" fill="black"/>
<rect x="336.495" y="248.714" width="29.2604" height="29.2604" fill="black"/>
<rect x="336.495" y="219.453" width="29.2604" height="29.2604" fill="black"/>
<rect x="102.411" y="190.193" width="29.2604" height="29.2604" fill="black"/>
<rect x="131.672" y="160.932" width="29.2604" height="29.2604" fill="black"/>
<rect x="131.672" y="131.672" width="29.2604" height="29.2604" fill="black"/>
<rect x="160.932" y="131.672" width="29.2604" height="29.2604" fill="black"/>
<rect x="190.193" y="102.411" width="29.2604" height="29.2604" fill="black"/>
<rect x="190.193" y="307.234" width="29.2604" height="29.2604" transform="rotate(-90 190.193 307.234)" fill="black"/>
<rect x="131.672" y="365.755" width="29.2604" height="29.2604" transform="rotate(-90 131.672 365.755)" fill="black"/>
<rect x="131.672" y="336.494" width="29.2604" height="29.2604" transform="rotate(-90 131.672 336.494)" fill="black"/>
<rect x="131.672" y="307.234" width="29.2604" height="29.2604" transform="rotate(-90 131.672 307.234)" fill="black"/>
<rect x="160.932" y="307.234" width="29.2604" height="29.2604" transform="rotate(-90 160.932 307.234)" fill="black"/>
<rect x="307.234" y="160.932" width="29.2604" height="29.2604" fill="black"/>
<rect x="336.495" y="190.193" width="29.2604" height="29.2604" fill="black"/>
<rect x="307.234" y="131.672" width="29.2604" height="29.2604" fill="black"/>
<rect x="277.974" y="131.672" width="29.2604" height="29.2604" fill="black"/>
<rect x="248.714" y="102.411" width="29.2604" height="29.2604" fill="black"/>
<rect x="219.453" y="102.411" width="29.2604" height="29.2604" fill="black"/>
</svg>
