<svg width="469" height="469" viewBox="0 0 469 469" fill="none" xmlns="http://www.w3.org/2000/svg">
<path fill-rule="evenodd" clip-rule="evenodd" d="M307.235 73.1504H190.193H160.933V102.411H131.672V131.671L102.412 131.671V160.932H73.1514V190.192V277.973V307.234H102.412V336.494H131.672L131.672 365.755H160.933V395.015H190.193H219.453H248.714H277.974H307.235V365.755H336.495V336.494H365.756V307.234H395.016V277.973V248.713V219.452V190.192V160.932H365.756V131.671L336.495 131.671V102.411H307.235V73.1504ZM307.235 102.411V131.671H336.495V160.932H365.756V190.192V219.452V248.713V277.973V307.234H336.495V336.494H307.235V365.755H277.974H248.714H219.453H190.193H160.933V336.494H131.672V307.234H102.412V277.973V190.192V160.932H131.672L131.672 131.671H160.933V102.411H190.193H307.235ZM219.453 131.671L219.453 160.932H190.193V190.192L160.933 190.192V219.452H190.193V190.192H219.453V336.494H248.714L248.714 190.192H277.974V219.452H307.235V190.192L277.974 190.192V160.932H248.714V131.671H219.453Z" fill="black"/>
</svg>
