<svg width="469" height="469" viewBox="0 0 469 469" fill="none" xmlns="http://www.w3.org/2000/svg">
<path d="M248.714 248.713H219.453V307.234H248.714V248.713Z" fill="black"/>
<path fill-rule="evenodd" clip-rule="evenodd" d="M307.235 73.1509H160.932V102.411H131.672V131.672H102.412V219.453H131.672V277.974H102.412V307.234H131.672V336.495H160.932V395.015H307.235V336.495H336.495V307.234H365.755V277.974H336.495V219.453H365.755V131.672H336.495V102.411H307.235V73.1509ZM307.235 102.411V131.672H336.495V219.453H277.974V277.974H336.495V307.234H307.235V336.495H277.974V365.755H248.714V336.495H219.453V365.755H190.193V336.495H160.932V307.234H131.672V277.974H190.193V219.453H131.672V131.672H160.932V102.411H307.235Z" fill="black"/>
</svg>
