<svg width="469" height="469" viewBox="0 0 469 469" fill="none" xmlns="http://www.w3.org/2000/svg">
<path fill-rule="evenodd" clip-rule="evenodd" d="M146.302 87.7812H263.344V117.042H146.302V87.7812ZM117.042 146.302V117.042H146.302V146.302H117.042ZM117.042 263.344H87.7812V146.302H117.042V263.344ZM146.302 292.604H117.042V263.344H146.302V292.604ZM263.344 292.604V321.865H146.302V292.604H263.344ZM292.604 263.344H263.344V292.604H292.604V321.865H321.865V351.125H351.125V380.385H380.385V351.125H351.125V321.865H321.865V292.604H292.604V263.344ZM292.604 146.302H321.865V263.344H292.604V146.302ZM292.604 146.302V117.042H263.344V146.302H292.604Z" fill="black"/>
</svg>
