<svg width="469" height="469" viewBox="0 0 469 469" fill="none" xmlns="http://www.w3.org/2000/svg">
<path fill-rule="evenodd" clip-rule="evenodd" d="M29.2607 29.2598H58.5212V58.5202H29.2607V29.2598ZM87.7816 58.5202H117.042V87.7806H87.7816V58.5202ZM175.563 87.7806H146.302V117.041H175.563V87.7806ZM204.823 87.7809H234.083V117.041H263.344V146.302H204.823V117.041V87.7809ZM263.344 175.562H204.823L204.823 146.302H175.563V175.562H146.302V438.906H175.563H292.604H321.865V204.823V175.562H292.604V146.302H263.344L263.344 175.562ZM292.604 409.645V204.823H175.563V409.645H292.604ZM117.042 117.041H87.7816V146.301H117.042V117.041ZM29.2607 87.7806H58.5212V117.041H29.2607V87.7806ZM58.5212 146.301H29.2607V175.562H58.5212V146.301Z" fill="black"/>
</svg>
