<svg width="470" height="470" viewBox="0 0 470 470" fill="none" xmlns="http://www.w3.org/2000/svg">
<path fill-rule="evenodd" clip-rule="evenodd" d="M249.688 44.0625H220.312V117.5H190.938V146.875H161.562V308.438H132.188V337.812H102.812V367.188V396.562H132.188H161.562V367.188H190.938V396.562H220.312V425.938H249.688V396.562H279.062V367.188H308.438V396.562H337.812H367.188V367.188V337.812H337.812V308.438H308.438V146.875H279.062V117.5H249.688V44.0625ZM249.688 117.5V146.875H279.062V367.188H249.688V308.438H220.312V367.188H190.938V146.875H220.312V117.5H249.688ZM337.812 337.812V367.188H308.438V337.812H337.812ZM161.562 337.812H132.188V367.188H161.562V337.812ZM249.688 176.25H220.312V205.625H249.688V176.25Z" fill="black"/>
</svg>
