<svg width="469" height="469" viewBox="0 0 469 469" fill="none" xmlns="http://www.w3.org/2000/svg">
<path d="M219.453 43.8906H248.714V102.411H219.453V43.8906Z" fill="black"/>
<path d="M102.411 73.151H73.151V102.411H102.411V131.672H131.672V102.411H102.411V73.151Z" fill="black"/>
<path fill-rule="evenodd" clip-rule="evenodd" d="M277.974 131.672H190.193V160.932H160.932V190.193H131.672V277.974H160.932V307.234H190.193V336.495H277.974V307.234H307.234V277.974H336.495V190.193H307.234V160.932H277.974V131.672ZM277.974 160.932V190.193H307.234V277.974H277.974V307.234H190.193V277.974H160.932V190.193H190.193V160.932H277.974Z" fill="black"/>
<path d="M102.411 336.495H131.672V365.755H102.411V336.495Z" fill="black"/>
<path d="M102.411 365.755V395.016H73.151V365.755H102.411Z" fill="black"/>
<path d="M365.755 365.755H395.016V395.016H365.755V365.755Z" fill="black"/>
<path d="M365.755 365.755H336.495V336.495H365.755V365.755Z" fill="black"/>
<path d="M365.755 73.151H395.016V102.411H365.755V73.151Z" fill="black"/>
<path d="M365.755 102.411V131.672H336.495V102.411H365.755Z" fill="black"/>
<path d="M102.411 248.714V219.453H43.8906V248.714H102.411Z" fill="black"/>
<path d="M365.755 219.453H424.276V248.714H365.755V219.453Z" fill="black"/>
<path d="M248.714 365.755H219.453V424.276H248.714V365.755Z" fill="black"/>
</svg>
