<svg width="469" height="469" viewBox="0 0 469 469" fill="none" xmlns="http://www.w3.org/2000/svg">
<path fill-rule="evenodd" clip-rule="evenodd" d="M204.823 117.042H146.302V146.302H117.042V292.604H87.7812V263.344H58.5208V292.604H87.7812V321.864H117.042V351.125H146.302V321.864H175.562V292.604H204.823V263.344H175.562V292.604H146.302V146.302H204.823V234.083H234.083V321.864H263.344V351.125H321.865L321.865 321.864H351.125V175.562H380.385V204.823H409.646V175.562H380.385V146.302H351.125V117.042H321.865V146.302H292.604V175.562H263.344V204.823H292.604L292.604 175.562H321.865V321.864H263.344V234.083H234.083V146.302H204.823V117.042Z" fill="black"/>
</svg>
