<svg width="470" height="470" viewBox="0 0 470 470" fill="none" xmlns="http://www.w3.org/2000/svg">
<path fill-rule="evenodd" clip-rule="evenodd" d="M73.4375 88.125H249.688V117.5H73.4375V88.125ZM73.4375 337.812H44.0625V117.5H73.4375V337.812ZM249.688 337.812V367.188H190.938V396.562H161.562V411.25H132.188V396.562H102.812V367.188H73.4375V337.812H249.688ZM279.062 337.812H249.688V117.5H279.062V146.875H367.188V161.562H396.562V190.938H367.188V176.25H279.062V279.062H396.562V308.438H279.062V337.812ZM279.062 337.812H411.25V279.062H396.562V190.938H425.938V279.062H440.625V337.812H425.938V367.188H381.875V396.562H352.5V411.25H323.125V396.562H293.75V367.188H279.062V337.812ZM161.562 367.188H132.188V381.875H161.562V367.188ZM352.5 367.188H323.125V381.875H352.5V367.188Z" fill="black"/>
</svg>
