<svg width="469" height="469" viewBox="0 0 469 469" fill="none" xmlns="http://www.w3.org/2000/svg">
<path fill-rule="evenodd" clip-rule="evenodd" d="M234.083 102.412H204.823V131.673H175.563V160.933V190.193V219.454H204.823V248.714H175.563H146.302V277.975H117.042V307.235V336.495V365.756H146.302H175.563H204.823H234.083H263.344H292.604H321.865H351.125V336.495V307.235V277.975H321.865V248.714H292.604H263.344V219.454H292.604V190.193V160.933V131.673H263.344V102.412H234.083ZM263.344 190.193V160.933V131.673H234.083H204.823V160.933V190.193V219.454H234.083H263.344V190.193ZM263.344 248.714V277.975H292.604H321.865V307.235V336.495L292.604 336.495H263.344H234.083H204.823H175.563L146.302 336.495V307.235V277.975H175.563H204.823V248.714H234.083H263.344Z" fill="black"/>
</svg>
