<svg width="469" height="469" viewBox="0 0 469 469" fill="none" xmlns="http://www.w3.org/2000/svg">
<path fill-rule="evenodd" clip-rule="evenodd" d="M277.974 73.1509H190.193V102.411H131.672V131.672L102.412 131.672V190.193H73.1511V277.974H102.412V336.495H131.672V365.755H190.193V395.015H277.974V365.755H336.495V336.495H365.755V277.974H395.016V190.193H365.755V131.672L336.495 131.672V102.411H277.974V73.1509ZM277.974 102.411V131.672H336.495V190.193H365.755V277.974H336.495V336.495H277.974V365.755H190.193V336.495H131.672L131.672 277.974H102.412V190.193H131.672L131.672 131.672H190.193V102.411H277.974ZM219.453 277.974H248.714V307.234H219.453V277.974ZM248.714 160.932H219.453V248.713H248.714V160.932Z" fill="black"/>
</svg>
