<svg width="469" height="469" viewBox="0 0 469 469" fill="none" xmlns="http://www.w3.org/2000/svg">
<path fill-rule="evenodd" clip-rule="evenodd" d="M277.974 73.1509H190.193V102.411H131.672V131.672L102.411 131.672V190.193H73.1509V277.974H102.411V336.495H131.672V365.755H190.193V395.015H277.974V365.755H336.495V336.495H365.755V277.974H395.015V190.193H365.755V131.672L336.495 131.672V102.411H277.974V73.1509ZM277.974 102.411V131.672H336.495V190.193H365.755V277.974H336.495V336.495H277.974V365.755H190.193V336.495H131.672L131.672 277.974H102.411V190.193H131.672L131.672 131.672H190.193V102.411H277.974ZM248.713 219.453H307.234V248.713H248.713L219.453 248.713V131.672H248.713L248.713 219.453Z" fill="black"/>
</svg>
