<svg width="469" height="469" viewBox="0 0 469 469" fill="none" xmlns="http://www.w3.org/2000/svg">
<path fill-rule="evenodd" clip-rule="evenodd" d="M248.713 43.8906H219.453V73.151H190.193V131.672H160.932V190.193H131.672V248.714H102.411V336.495H131.672V395.016H160.932H190.193V424.276H277.974V395.016H307.234H336.495V336.495H365.755V248.714H336.495V190.193H307.234V131.672H277.974V73.151H248.713V43.8906ZM248.713 73.151V131.672H277.974V190.193H307.234V248.714H336.495V336.495H307.234V365.755H277.974V395.016H190.193V365.755H160.932V336.495H131.672V248.714H160.932V190.193H190.193V131.672H219.453V73.151H248.713Z" fill="black"/>
</svg>
