<svg width="469" height="469" viewBox="0 0 469 469" fill="none" xmlns="http://www.w3.org/2000/svg">
<path fill-rule="evenodd" clip-rule="evenodd" d="M307.234 102.412H160.932V131.673H102.411V160.933H73.151V190.193H43.8906V219.454H73.151V190.193H102.411L102.411 160.933H160.932V131.673H307.234V160.933H365.755L365.755 190.193H395.016L395.016 219.454H424.276V190.193H395.016V160.933H365.755V131.673H307.234V102.412ZM219.453 277.975H248.714V307.235H219.453V277.975ZM219.453 336.495V307.235H190.193V336.495H219.453ZM248.714 336.495L248.714 365.756H219.453V336.495H248.714ZM248.714 336.495L248.714 307.235H277.974V336.495H248.714ZM190.193 190.194H277.974V219.454H190.193V190.194ZM131.672 248.715V219.454H190.193V248.715H131.672ZM131.672 248.715V277.975H102.411V248.715H131.672ZM336.495 248.715H277.974V219.454H336.495V248.715ZM336.495 248.715H365.755V277.975H336.495V248.715Z" fill="black"/>
</svg>
